<svg width="428" height="428" viewBox="0 0 428 428" fill="none" xmlns="http://www.w3.org/2000/svg">
<g clip-path="url(#clip0_66_1308)">
<path d="M0 214C0 95.8111 95.8111 0 214 0C332.189 0 428 95.8111 428 214C428 332.189 332.189 428 214 428C95.8111 428 0 332.189 0 214Z" fill="#212120"/>
<path d="M206.938 79.394H220.42L228.338 80.036L237.326 81.32L244.388 82.818L251.664 84.744L259.368 87.312L265.36 89.666L269.64 91.592L274.99 94.16L280.126 96.942L285.048 99.938L290.184 103.362L294.036 106.144L297.032 108.498L299.386 110.424L302.382 112.992L307.518 117.7L312.012 122.194L313.51 123.906L315.864 126.474L317.79 128.828L320.572 132.252L323.568 136.318L326.564 140.598L329.774 145.734L332.556 150.656L335.552 156.434L338.334 162.426L341.116 169.488L343.684 177.192L345.824 185.11L347.322 192.386L348.606 200.946L349.248 208.222L349.462 213.144V220.206L349.034 228.124L348.178 235.828L346.894 243.318L344.968 251.45L343.256 257.228L340.902 264.076L338.334 270.282L335.338 276.702L332.77 281.41L329.346 287.188L327.206 290.398L324.638 294.036L322.712 296.604L320.358 299.6L318.004 302.382L316.078 304.522L314.58 306.234L311.156 309.872L309.658 311.37L307.946 312.868L306.448 314.366L304.736 315.864L301.954 318.218L298.958 320.572L294.678 323.782L287.616 328.49L282.908 331.272L277.772 334.054L271.138 337.264L263.22 340.474L255.516 343.042L248.668 344.968L240.75 346.68L234.33 347.75L226.626 348.606L219.35 349.034H209.934L202.872 348.606L195.382 347.75L187.892 346.466L181.258 344.968L175.052 343.256L167.348 340.688L160.5 337.906L155.578 335.552L151.298 332.984L148.302 330.844L146.162 329.132L144.022 327.206L142.31 325.708L139.528 322.712L136.746 319.074L134.82 316.078L132.68 312.226L130.54 307.09L129.256 303.024L128.186 298.102L127.544 292.966V283.764L128.186 278.2L129.47 271.994L131.182 266.216L135.034 255.73L139.1 245.244L144.878 230.906L148.516 222.132L153.652 210.148L157.932 200.518L161.356 193.028L164.352 186.608L167.348 180.402L169.702 175.48L174.838 165.208L177.406 160.5L179.974 155.578L182.756 150.656L185.966 145.092L188.748 140.598L191.744 135.89L194.74 131.61L197.308 128.186L199.02 126.046L201.588 123.05L205.654 118.984L208.008 117.272L211.432 115.56L212.288 115.346H215.07L217.638 116.202L219.992 117.486L222.132 119.198L224.7 121.552L227.482 124.548L230.264 128.186L233.046 132.038L236.042 136.746L238.824 141.454L241.82 146.804L244.816 152.582L246.956 156.648L250.166 163.282L253.376 170.344L256.8 178.048L260.652 187.25L266.216 201.16L270.282 211.86L274.134 222.56L277.344 231.762L282.052 245.886L285.69 257.656L288.472 267.5L291.468 279.484L292.538 285.476V289.542L291.682 291.468L290.398 292.966L288.9 293.608L286.974 293.822L283.55 292.966L281.196 291.682L277.558 289.114L273.492 286.332L267.714 282.48L264.076 280.126L260.01 277.558L255.516 274.776L249.738 271.352L244.174 268.142L238.396 264.932L232.404 261.722L224.058 257.442L217.852 254.446L210.79 251.236L204.37 248.454L196.452 245.244L190.246 242.89L181.258 239.68L171.628 236.684L164.566 234.758L160.072 233.688L159.858 233.26L162.212 228.124L164.352 228.338L172.698 230.264L182.97 233.046L192.6 236.042L203.942 239.894L211.86 242.89L219.778 246.1L226.198 248.882L233.688 252.306L241.178 255.944L245.244 258.084L250.808 261.08L255.944 264.076L262.15 267.714L265.788 270.068L272.208 274.348L275.846 276.916L278.628 279.056L280.982 280.982L283.978 283.55L287.402 286.974L286.118 284.62L282.266 278.842L281.624 277.772L279.912 271.994L275.418 257.656L270.282 241.82L265.146 226.626L261.508 216.354L257.442 205.226L252.948 193.456L248.882 183.398L245.458 175.266L242.89 169.488L239.466 161.998L235.614 154.08L230.478 144.664L227.482 139.742L224.7 135.676L222.56 132.894L220.634 130.754L219.564 129.47L217.424 127.758L215.284 126.688L213.572 126.474L210.79 127.33L208.222 128.828L205.226 131.396L203.514 133.108L201.588 135.462L198.592 139.314L194.74 145.092L191.958 149.586L188.748 155.15L185.752 160.714L182.756 166.492L177.834 176.336L175.052 182.328L171.414 190.246L167.562 199.02L163.924 207.58L160.286 216.354L153.438 233.474L149.372 243.96L145.306 254.66L141.668 264.504L139.956 269.64L138.458 276.06L137.816 280.34L137.602 282.694V290.612L138.244 295.534L139.314 300.028L141.026 304.736L143.594 309.658L145.734 312.654L147.446 314.794L149.8 317.362L151.298 318.86L153.652 320.786L157.504 323.568L160.714 325.494L165.422 328.062L169.702 329.988L175.908 332.342L182.328 334.268L188.748 335.766L194.526 336.836L201.374 337.692L207.152 338.12H220.206L227.696 337.478L236.042 336.194L242.89 334.696L250.38 332.556L256.586 330.416L262.792 327.848L268.998 324.852L274.348 322.07L278.628 319.502L285.048 315.222L289.114 312.226L292.11 309.872L295.106 307.304L297.246 305.378L298.958 303.88L300.884 301.954L302.596 300.456L304.094 298.744L306.02 296.818L307.518 295.106L310.086 292.11L312.44 289.114L315.008 285.69L318.218 280.982L320.786 276.916L323.354 272.422L326.35 266.644L329.132 260.438L331.272 254.66L332.984 249.524L334.91 242.248L336.408 234.544L337.264 227.91L337.692 221.918V211.432L337.05 203.514L335.98 196.452L334.482 189.39L332.77 183.184L330.416 176.122L327.634 169.274L324.424 162.426L321.856 157.718L319.716 154.08L317.148 150.014L313.724 145.092L310.942 141.454L309.23 139.314L306.876 136.532L304.95 134.178L303.024 132.252L301.526 130.54L297.246 126.26L295.534 124.762L292.966 122.408L290.612 120.482L287.188 117.7L283.122 114.704L277.344 110.852L271.994 107.642L267.286 105.074L262.578 102.72L256.586 100.152L250.166 97.798L243.96 95.872L237.754 94.374L230.906 93.09L223.844 92.234L221.062 92.02L215.498 91.806H211.218L202.016 92.234L193.884 93.09L185.966 94.374L177.192 96.3L171.2 98.012L163.496 100.58L157.29 103.148L151.94 105.716L147.874 107.856L143.38 110.638L139.528 113.42L136.104 115.988L132.68 118.77L129.47 121.552L126.688 124.12L120.91 129.898L119.412 131.61L116.63 134.82L114.276 137.816L111.708 141.24L108.498 145.948L105.93 150.014L102.72 155.578L100.58 159.644L97.798 165.636L95.23 172.056L93.304 177.406L91.592 182.756L89.666 190.032L87.954 197.736L86.67 205.226L85.6 214L84.958 222.346L84.744 227.268V238.824L85.172 247.17L86.028 255.944L86.884 261.936V263.22L86.456 262.578L83.888 254.874L82.176 248.24L80.678 240.75L79.608 232.832L78.966 224.914L78.752 218.708V213.358L78.966 207.152L79.608 199.662L80.678 191.958L82.176 184.468L84.102 176.978L86.884 168.418L89.452 161.998L92.234 155.792L94.588 151.084L97.37 146.162L100.366 141.24L103.576 136.532L106.572 132.466L109.354 129.042L111.28 126.688L113.206 124.548L114.704 122.836L117.7 119.626L121.552 115.774L123.264 114.276L125.832 111.922L128.186 109.996L131.61 107.214L135.676 104.218L140.384 101.008L144.45 98.44L149.372 95.658L154.294 93.09L159.216 90.736L166.492 87.74L174.196 85.172L180.188 83.46L186.608 81.962L193.884 80.678L200.946 79.822L206.938 79.394Z" fill="#FEFEFE"/>
<path d="M218.066 136.96H220.42L222.988 138.244L225.556 140.598L227.268 142.31L230.05 145.948L232.618 149.586L236.256 155.578L236.684 156.434L237.326 157.076L240.322 163.282L243.532 170.344L247.598 179.76L251.45 189.176L254.874 197.95L259.368 209.934L263.22 220.634L266.858 231.12L270.924 243.104L274.776 254.874L279.056 268.57L281.624 276.916L282.266 278.414L285.048 282.694L287.616 286.76L287.402 287.188L283.336 283.122L280.982 281.196L278.2 278.842L274.134 275.846L265.788 270.282L261.722 267.714L254.874 263.648L249.524 260.652L243.96 257.656L237.754 254.446L232.832 252.092L225.342 248.668L217.21 245.244L209.078 242.034L199.662 238.61L190.032 235.4L179.974 232.404L169.274 229.622L165.422 228.766L164.994 228.552L165.636 226.412L169.488 217.21L174.624 205.226L178.048 197.736L181.9 189.176L183.612 185.752L186.18 180.402L189.176 174.41L191.744 169.702L193.67 166.064L196.666 160.928L199.234 156.648L202.658 151.512L204.798 148.516L207.152 145.52L209.72 142.738L212.288 140.17L215.07 138.244L216.782 137.388L218.066 136.96Z" fill="#20201F"/>
<path d="M211.218 91.592H215.498L221.062 91.806L227.91 92.448L235.828 93.732L243.96 95.658L251.45 98.012L257.656 100.366L263.862 103.148L269.426 105.93L274.562 108.926L279.056 111.708L282.48 114.062L286.546 117.058L289.542 119.412L292.324 121.766L295.32 124.334L296.818 125.832L298.53 127.33L303.024 131.824L304.522 133.536L306.876 136.104L308.802 138.458L311.584 141.882L314.58 145.948L318.86 152.368L320.786 155.578L323.354 160.072L325.708 164.566L325.922 165.636L325.28 164.994L322.07 159.858L319.502 156.22L316.078 151.726L313.296 148.302L310.728 145.306L308.16 142.524L306.662 141.026L305.164 139.314L298.958 133.536L296.604 131.61L293.822 129.256L290.398 126.688L286.546 123.906L282.908 121.552L278.414 118.77L273.278 115.988L269.854 114.276L265.36 112.136L258.298 109.354L251.236 107L244.602 105.288L238.396 104.004L230.692 102.934L224.914 102.506H212.074L203.514 103.148L195.382 104.218L187.464 105.716L178.904 107.856L172.056 109.996L165.85 112.35L160.5 114.704L157.076 116.416L153.01 118.556L148.944 121.124L145.52 123.478L141.882 126.26L138.886 128.614L135.676 131.396L130.54 136.104L127.758 138.886L126.26 140.598L123.692 143.38L121.766 145.734L119.198 148.944L116.202 153.01L113.634 156.862L111.066 160.928L108.498 165.422L105.502 171.2L102.934 176.764L100.366 183.184L98.226 189.39L96.3 195.596L94.16 204.156L92.662 211.86L91.164 222.346L90.308 232.618L90.094 237.754V249.524L90.522 257.87L91.378 266.644L92.234 272.636V273.706L91.806 273.064L89.238 265.36L87.312 257.656L86.028 251.022L84.958 243.318L84.53 238.824V227.268L84.958 218.922L85.814 210.148L86.884 202.444L88.382 194.526L90.308 186.608L92.234 179.974L94.588 173.126L97.156 166.706L99.51 161.57L101.222 158.146L103.79 153.224L107 147.874L109.568 144.022L112.136 140.384L114.276 137.602L117.058 134.178L119.626 131.182L122.622 127.972L128.4 122.194L130.112 120.696L133.108 118.128L136.532 115.346L140.384 112.564L144.022 109.996L148.73 107.214L154.508 104.218L159.216 102.078L164.78 99.938L172.484 97.37L179.974 95.444L187.036 93.946L195.596 92.662L202.016 92.02L211.218 91.592Z" fill="#101010"/>
<path d="M338.548 162.854L339.404 163.924L342.614 170.558L345.396 177.192L348.178 184.896L350.746 193.884L352.458 201.802L353.528 208.222L354.384 215.712L354.598 218.708L354.812 224.486V230.05L354.598 236.042L353.742 244.602L352.672 251.664L350.96 259.582L349.034 266.644L346.466 274.134L344.112 279.912L341.33 285.904L338.334 291.682L335.552 296.39L333.198 300.028L330.844 303.452L327.848 307.518L325.066 310.942L323.14 313.296L320.572 316.078L319.074 317.79L313.082 323.782L311.37 325.28L309.23 327.206L306.876 329.132L303.666 331.7L299.6 334.696L294.464 338.12L290.612 340.474L286.118 343.042L280.34 346.038L275.204 348.392L268.784 350.96L261.294 353.528L255.088 355.24L248.668 356.738L241.606 358.022L234.972 358.878L226.84 359.52H213.572L207.366 359.092L200.09 358.236L192.814 356.952L185.324 355.24L178.048 353.1L171.414 350.746L165.636 348.392L162.212 346.68L158.574 344.754L154.08 341.758L150.656 338.976L148.088 336.622L145.734 334.268L143.808 331.914L141.026 328.062L138.458 323.568L136.532 319.288L136.746 318.86L139.1 321.856L141.24 324.21L142.738 325.922L145.52 328.49L149.158 331.272L152.368 333.412L156.862 335.98L160.928 337.906L167.99 340.688L175.694 343.256L183.826 345.396L191.316 346.894L198.592 347.964L205.654 348.606L209.934 348.82H219.35L226.626 348.392L234.33 347.536L241.82 346.252L249.524 344.54L257.014 342.4L263.862 340.046L270.068 337.478L275.632 334.91L279.912 332.77L284.834 329.988L289.328 327.206L294.036 323.996L298.102 321L301.098 318.646L304.094 316.078L305.806 314.58L307.946 312.654L311.584 309.23L315.008 305.592L317.362 303.024L319.288 300.67L322.07 297.246L325.066 293.18L327.848 289.114L330.416 285.048L333.626 279.484L335.98 274.99L338.976 268.356L341.758 261.08L344.112 253.804L346.466 244.388L347.75 237.112L348.606 230.478L349.034 225.128L349.248 220.206V213.144L348.82 205.44L347.964 197.736L346.466 188.962L344.754 181.686L342.614 174.41L340.046 167.134L338.548 163.496V162.854Z" fill="#101010"/>
<path d="M213.572 126.26L215.284 126.474L217.424 127.544L220.42 130.112L222.346 132.252L225.556 136.532L228.338 140.812L230.264 144.022L233.046 148.944L235.614 153.866L236.898 156.22L236.684 156.648L233.474 151.298L230.906 147.446L227.91 143.38L225.342 140.598L223.844 139.1L221.49 137.602L220.42 137.174H218.066L215.498 138.244L213.144 139.742L210.576 142.096L208.222 144.45L206.296 146.804L203.728 150.228L199.876 156.006L197.094 160.5L194.312 165.422L192.172 169.274L189.604 174.196L187.464 178.262L184.254 184.682L182.328 188.962L180.616 192.386L177.192 200.09L174.624 205.654L169.702 217.21L165.85 226.412L164.994 228.552L162.212 228.124L161.57 230.05L160.072 233.474L162.426 234.116L162.212 235.4L158.574 244.602L153.866 256.8L150.014 267.072L146.376 276.916L144.664 282.694L143.38 289.328L142.952 293.18V301.098L143.38 304.95L144.45 309.872L144.664 310.942H144.236L142.096 307.304L140.384 303.666L138.672 298.53L137.816 294.25L137.388 290.612V282.694L138.03 277.344L139.1 272.208L140.598 266.858L144.664 255.73L149.158 243.96L153.224 233.474L159.216 218.494L163.282 208.65L168.204 197.094L171.842 188.962L175.266 181.472L178.904 173.768L184.896 161.784L187.464 157.076L190.46 151.726L193.028 147.446L196.024 142.738L198.592 139.1L200.732 136.318L202.658 133.964L205.012 131.396L207.366 129.256L210.362 127.33L212.502 126.474L213.572 126.26Z" fill="#101010"/>
<path d="M251.664 166.492L252.306 167.348L254.66 172.27L256.372 175.694L259.582 182.756L264.29 193.67L268.356 203.514L271.78 212.288L275.204 221.276L278.628 230.692L281.196 237.968L284.834 248.668L288.472 259.796L291.896 271.138L294.678 281.196L296.604 289.114L297.674 294.678L297.888 296.176V300.028L297.032 302.168L296.176 303.238L294.678 304.094L293.822 304.308H291.682L288.9 303.452L286.76 302.382L282.48 299.386L279.056 297.032L273.92 293.608L269.64 290.826L264.932 287.83L258.94 284.192L254.232 281.41L245.244 276.274L238.396 272.636L232.618 269.64L225.77 266.216L218.708 263.006L213.572 260.652L204.37 256.8L196.024 253.59L188.106 250.808L181.044 248.454L172.056 245.886L165.208 244.174L167.134 239.68L167.562 238.61L170.344 239.038L179.332 241.178L190.032 244.174L200.304 247.384L207.152 249.738L209.292 250.38L216.354 253.59L227.054 258.726L234.544 262.578L239.252 265.146L245.03 268.356L250.166 271.352L257.014 275.418L266.43 281.41L273.492 286.118L276.916 288.472L281.838 291.896L284.192 292.966L286.974 293.608L289.542 293.18L290.826 292.324L291.896 290.826L292.324 289.542V285.476L291.254 279.484L288.044 266.644L284.62 254.874L280.768 242.676L275.846 227.91L271.78 216.568L268.142 206.724L264.504 197.308L260.438 187.25L257.014 179.118L253.162 170.344L251.664 167.134V166.492Z" fill="#101010"/>
<path d="M213.572 126.26L215.284 126.474L215.498 126.902L212.93 128.4L210.79 130.112L208.222 132.466L205.654 135.248L203.3 138.244L201.16 141.026L198.164 145.306L195.382 149.586L192.172 154.722L188.962 160.286L186.394 164.78L183.398 170.344L181.044 174.624L172.698 191.316L170.13 196.88L168.418 200.304L165.208 207.366L162.212 214L158.36 222.774L155.15 230.264L152.154 237.326L151.94 236.684L158.788 219.564L162.212 211.218L165.636 203.086L168.418 196.666L171.842 188.962L175.266 181.472L178.904 173.768L184.896 161.784L187.464 157.076L190.46 151.726L193.028 147.446L196.024 142.738L198.592 139.1L200.732 136.318L202.658 133.964L205.012 131.396L207.366 129.256L210.362 127.33L212.502 126.474L213.572 126.26Z" fill="#212120"/>
<path d="M212.074 197.094H215.284L217.424 197.95L219.136 199.234L220.42 200.946L221.062 202.444L221.276 203.514V205.654L220.634 207.794L219.35 209.72L217.852 211.004L216.14 211.86L215.284 212.074H212.074L209.506 211.004L207.794 209.506L206.724 207.794L206.082 205.654V203.514L206.938 200.946L208.436 199.02L210.148 197.736L212.074 197.094Z" fill="#E8E8E8"/>
<path d="M178.048 95.872H179.118L178.476 96.3L171.628 98.654L165.422 101.222L159.858 103.79L154.08 106.786L148.302 110.21L144.022 112.992L139.956 115.774L133.964 120.482L130.968 123.05L126.688 126.902L120.054 133.536L118.556 135.248L115.988 138.244L114.062 140.598L111.066 144.45L108.284 148.516L105.93 151.94L102.934 156.862L99.938 162.212L97.156 167.776L96.942 167.134L99.51 161.57L101.222 158.146L103.79 153.224L107 147.874L109.568 144.022L112.136 140.384L114.276 137.602L117.058 134.178L119.626 131.182L122.622 127.972L128.4 122.194L130.112 120.696L133.108 118.128L136.532 115.346L140.384 112.564L144.022 109.996L148.73 107.214L154.508 104.218L159.216 102.078L164.78 99.938L172.484 97.37L178.048 95.872Z" fill="#212120"/>
<path d="M220.42 207.794L222.346 208.222L224.7 209.934L225.984 211.86L226.626 214.214V216.354L225.77 218.922L223.844 221.062L222.132 222.132L221.062 222.56L219.778 222.774H218.066L215.926 222.132L214 220.848L212.502 219.136L211.646 216.996L211.432 214.642L212.074 212.074L215.284 211.86L217.424 211.004L219.136 209.72L220.42 207.794Z" fill="#101010"/>
<path d="M121.338 222.346H135.676L142.096 222.774L141.882 224.058L139.956 228.766L138.244 228.552L132.894 227.268L126.046 226.198L119.198 225.556L115.346 225.342L101.008 225.128L101.864 224.7L107.856 223.63L114.918 222.774L121.338 222.346Z" fill="#E8E8E8"/>
<path d="M130.112 232.832H138.244L143.166 233.046L143.808 233.26L143.594 234.544L142.096 238.396L139.956 238.182L134.178 237.112L126.688 236.256L118.984 235.828L106.786 235.614V235.4L112.35 234.33L119.198 233.474L124.976 233.046L130.112 232.832Z" fill="#101010"/>
<path d="M260.866 341.116L261.508 341.33L256.158 343.256L248.668 345.396L242.89 346.68L236.898 347.75L229.836 348.606L227.054 348.82H223.63V348.606L230.906 347.964L238.396 346.894L246.956 345.182L254.874 343.042L260.866 341.116Z" fill="#212120"/>
<path d="M289.97 292.966L290.826 293.822L293.394 297.888L293.18 298.316L290.184 295.106L288.686 293.822L288.9 293.394L289.97 292.966Z" fill="#212120"/>
<path d="M251.664 166.492L252.306 167.348L254.66 172.27L254.874 173.126H254.446L251.664 167.134V166.492Z" fill="#141413"/>
</g>
<defs>
<clipPath id="clip0_66_1308">
<rect width="428" height="428" fill="white"/>
</clipPath>
</defs>
</svg>
