<svg xmlns="http://www.w3.org/2000/svg" width="428" height="428" fill="none"><g clip-path="url(#a)"><path fill="#212120" d="M0 214C0 95.811 95.811 0 214 0s214 95.811 214 214-95.811 214-214 214S0 332.189 0 214"/><path fill="#FEFEFE" d="M206.938 79.394h13.482l7.918.642 8.988 1.284 7.062 1.498 7.276 1.926 7.704 2.568 5.992 2.354 4.28 1.926 5.35 2.568 5.136 2.782 4.922 2.996 5.136 3.424 3.852 2.782 2.996 2.354 2.354 1.926 2.996 2.568 5.136 4.708 4.494 4.494 1.498 1.712 2.354 2.568 1.926 2.354 2.782 3.424 2.996 4.066 2.996 4.28 3.21 5.136 2.782 4.922 2.996 5.778 2.782 5.992 2.782 7.062 2.568 7.704 2.14 7.918 1.498 7.276 1.284 8.56.642 7.276.214 4.922v7.062l-.428 7.918-.856 7.704-1.284 7.49-1.926 8.132-1.712 5.778-2.354 6.848-2.568 6.206-2.996 6.42-2.568 4.708-3.424 5.778-2.14 3.21-2.568 3.638-1.926 2.568-2.354 2.996-2.354 2.782-1.926 2.14-1.498 1.712-3.424 3.638-1.498 1.498-1.712 1.498-1.498 1.498-1.712 1.498-2.782 2.354-2.996 2.354-4.28 3.21-7.062 4.708-4.708 2.782-5.136 2.782-6.634 3.21-7.918 3.21-7.704 2.568-6.848 1.926-7.918 1.712-6.42 1.07-7.704.856-7.276.428h-9.416l-7.062-.428-7.49-.856-7.49-1.284-6.634-1.498-6.206-1.712-7.704-2.568-6.848-2.782-4.922-2.354-4.28-2.568-2.996-2.14-2.14-1.712-2.14-1.926-1.712-1.498-2.782-2.996-2.782-3.638-1.926-2.996-2.14-3.852-2.14-5.136-1.284-4.066-1.07-4.922-.642-5.136v-9.202l.642-5.564 1.284-6.206 1.712-5.778 3.852-10.486 4.066-10.486 5.778-14.338 3.638-8.774 5.136-11.984 4.28-9.63 3.424-7.49 2.996-6.42 2.996-6.206 2.354-4.922 5.136-10.272 2.568-4.708 2.568-4.922 2.782-4.922 3.21-5.564 2.782-4.494 2.996-4.708 2.996-4.28 2.568-3.424 1.712-2.14 2.568-2.996 4.066-4.066 2.354-1.712 3.424-1.712.856-.214h2.782l2.568.856 2.354 1.284 2.14 1.712 2.568 2.354 2.782 2.996 2.782 3.638 2.782 3.852 2.996 4.708 2.782 4.708 2.996 5.35 2.996 5.778 2.14 4.066 3.21 6.634 3.21 7.062 3.424 7.704 3.852 9.202 5.564 13.91 4.066 10.7 3.852 10.7 3.21 9.202 4.708 14.124 3.638 11.77 2.782 9.844 2.996 11.984 1.07 5.992v4.066l-.856 1.926-1.284 1.498-1.498.642-1.926.214-3.424-.856-2.354-1.284-3.638-2.568-4.066-2.782-5.778-3.852-3.638-2.354-4.066-2.568-4.494-2.782-5.778-3.424-5.564-3.21-5.778-3.21-5.992-3.21-8.346-4.28-6.206-2.996-7.062-3.21-6.42-2.782-7.918-3.21-6.206-2.354-8.988-3.21-9.63-2.996-7.062-1.926-4.494-1.07-.214-.428 2.354-5.136 2.14.214 8.346 1.926 10.272 2.782 9.63 2.996 11.342 3.852 7.918 2.996 7.918 3.21 6.42 2.782 7.49 3.424 7.49 3.638 4.066 2.14 5.564 2.996 5.136 2.996 6.206 3.638 3.638 2.354 6.42 4.28 3.638 2.568 2.782 2.14 2.354 1.926 2.996 2.568 3.424 3.424-1.284-2.354-3.852-5.778-.642-1.07-1.712-5.778-4.494-14.338-5.136-15.836-5.136-15.194-3.638-10.272-4.066-11.128-4.494-11.77-4.066-10.058-3.424-8.132-2.568-5.778-3.424-7.49-3.852-7.918-5.136-9.416-2.996-4.922-2.782-4.066-2.14-2.782-1.926-2.14-1.07-1.284-2.14-1.712-2.14-1.07-1.712-.214-2.782.856-2.568 1.498-2.996 2.568-1.712 1.712-1.926 2.354-2.996 3.852-3.852 5.778-2.782 4.494-3.21 5.564-2.996 5.564-2.996 5.778-4.922 9.844-2.782 5.992-3.638 7.918-3.852 8.774-3.638 8.56-3.638 8.774-6.848 17.12-4.066 10.486-4.066 10.7-3.638 9.844-1.712 5.136-1.498 6.42-.642 4.28-.214 2.354v7.918l.642 4.922 1.07 4.494 1.712 4.708 2.568 4.922 2.14 2.996 1.712 2.14 2.354 2.568 1.498 1.498 2.354 1.926 3.852 2.782 3.21 1.926 4.708 2.568 4.28 1.926 6.206 2.354 6.42 1.926 6.42 1.498 5.778 1.07 6.848.856 5.778.428h13.054l7.49-.642 8.346-1.284 6.848-1.498 7.49-2.14 6.206-2.14 6.206-2.568 6.206-2.996 5.35-2.782 4.28-2.568 6.42-4.28 4.066-2.996 2.996-2.354 2.996-2.568 2.14-1.926 1.712-1.498 1.926-1.926 1.712-1.498 1.498-1.712 1.926-1.926 1.498-1.712 2.568-2.996 2.354-2.996 2.568-3.424 3.21-4.708 2.568-4.066 2.568-4.494 2.996-5.778 2.782-6.206 2.14-5.778 1.712-5.136 1.926-7.276 1.498-7.704.856-6.634.428-5.992v-10.486l-.642-7.918-1.07-7.062-1.498-7.062-1.712-6.206-2.354-7.062-2.782-6.848-3.21-6.848-2.568-4.708-2.14-3.638-2.568-4.066-3.424-4.922-2.782-3.638-1.712-2.14-2.354-2.782-1.926-2.354-1.926-1.926-1.498-1.712-4.28-4.28-1.712-1.498-2.568-2.354-2.354-1.926-3.424-2.782-4.066-2.996-5.778-3.852-5.35-3.21-4.708-2.568-4.708-2.354-5.992-2.568-6.42-2.354-6.206-1.926-6.206-1.498-6.848-1.284-7.062-.856-2.782-.214-5.564-.214h-4.28l-9.202.428-8.132.856-7.918 1.284-8.774 1.926-5.992 1.712-7.704 2.568-6.206 2.568-5.35 2.568-4.066 2.14-4.494 2.782-3.852 2.782-3.424 2.568-3.424 2.782-3.21 2.782-2.782 2.568-5.778 5.778-1.498 1.712-2.782 3.21-2.354 2.996-2.568 3.424-3.21 4.708-2.568 4.066-3.21 5.564-2.14 4.066-2.782 5.992-2.568 6.42-1.926 5.35-1.712 5.35-1.926 7.276-1.712 7.704-1.284 7.49L85.6 214l-.642 8.346-.214 4.922v11.556l.428 8.346.856 8.774.856 5.992v1.284l-.428-.642-2.568-7.704-1.712-6.634-1.498-7.49-1.07-7.918-.642-7.918-.214-6.206v-5.35l.214-6.206.642-7.49 1.07-7.704 1.498-7.49 1.926-7.49 2.782-8.56 2.568-6.42 2.782-6.206 2.354-4.708 2.782-4.922 2.996-4.922 3.21-4.708 2.996-4.066 2.782-3.424 1.926-2.354 1.926-2.14 1.498-1.712 2.996-3.21 3.852-3.852 1.712-1.498 2.568-2.354 2.354-1.926 3.424-2.782 4.066-2.996 4.708-3.21 4.066-2.568 4.922-2.782 4.922-2.568 4.922-2.354 7.276-2.996 7.704-2.568 5.992-1.712 6.42-1.498 7.276-1.284 7.062-.856z"/><path fill="#20201F" d="M218.066 136.96h2.354l2.568 1.284 2.568 2.354 1.712 1.712 2.782 3.638 2.568 3.638 3.638 5.992.428.856.642.642 2.996 6.206 3.21 7.062 4.066 9.416 3.852 9.416 3.424 8.774 4.494 11.984 3.852 10.7 3.638 10.486 4.066 11.984 3.852 11.77 4.28 13.696 2.568 8.346.642 1.498 2.782 4.28 2.568 4.066-.214.428-4.066-4.066-2.354-1.926-2.782-2.354-4.066-2.996-8.346-5.564-4.066-2.568-6.848-4.066-5.35-2.996-5.564-2.996-6.206-3.21-4.922-2.354-7.49-3.424-8.132-3.424-8.132-3.21-9.416-3.424-9.63-3.21-10.058-2.996-10.7-2.782-3.852-.856-.428-.214.642-2.14 3.852-9.202 5.136-11.984 3.424-7.49 3.852-8.56 1.712-3.424 2.568-5.35 2.996-5.992 2.568-4.708 1.926-3.638 2.996-5.136 2.568-4.28 3.424-5.136 2.14-2.996 2.354-2.996 2.568-2.782 2.568-2.568 2.782-1.926 1.712-.856z"/><path fill="#101010" d="M211.218 91.592h4.28l5.564.214 6.848.642 7.918 1.284 8.132 1.926 7.49 2.354 6.206 2.354 6.206 2.782 5.564 2.782 5.136 2.996 4.494 2.782 3.424 2.354 4.066 2.996 2.996 2.354 2.782 2.354 2.996 2.568 1.498 1.498 1.712 1.498 4.494 4.494 1.498 1.712 2.354 2.568 1.926 2.354 2.782 3.424 2.996 4.066 4.28 6.42 1.926 3.21 2.568 4.494 2.354 4.494.214 1.07-.642-.642-3.21-5.136-2.568-3.638-3.424-4.494-2.782-3.424-2.568-2.996-2.568-2.782-1.498-1.498-1.498-1.712-6.206-5.778-2.354-1.926-2.782-2.354-3.424-2.568-3.852-2.782-3.638-2.354-4.494-2.782-5.136-2.782-3.424-1.712-4.494-2.14-7.062-2.782-7.062-2.354-6.634-1.712-6.206-1.284-7.704-1.07-5.778-.428h-12.84l-8.56.642-8.132 1.07-7.918 1.498-8.56 2.14-6.848 2.14-6.206 2.354-5.35 2.354-3.424 1.712-4.066 2.14-4.066 2.568-3.424 2.354-3.638 2.782-2.996 2.354-3.21 2.782-5.136 4.708-2.782 2.782-1.498 1.712-2.568 2.782-1.926 2.354-2.568 3.21-2.996 4.066-2.568 3.852-2.568 4.066-2.568 4.494-2.996 5.778-2.568 5.564-2.568 6.42-2.14 6.206-1.926 6.206-2.14 8.56-1.498 7.704-1.498 10.486-.856 10.272-.214 5.136v11.77l.428 8.346.856 8.774.856 5.992v1.07l-.428-.642-2.568-7.704-1.926-7.704-1.284-6.634-1.07-7.704-.428-4.494v-11.556l.428-8.346.856-8.774 1.07-7.704 1.498-7.918 1.926-7.918 1.926-6.634 2.354-6.848 2.568-6.42 2.354-5.136 1.712-3.424 2.568-4.922 3.21-5.35 2.568-3.852 2.568-3.638 2.14-2.782 2.782-3.424 2.568-2.996 2.996-3.21 5.778-5.778 1.712-1.498 2.996-2.568 3.424-2.782 3.852-2.782 3.638-2.568 4.708-2.782 5.778-2.996 4.708-2.14 5.564-2.14 7.704-2.568 7.49-1.926 7.062-1.498 8.56-1.284 6.42-.642zM338.548 162.854l.856 1.07 3.21 6.634 2.782 6.634 2.782 7.704 2.568 8.988 1.712 7.918 1.07 6.42.856 7.49.214 2.996.214 5.778v5.564l-.214 5.992-.856 8.56-1.07 7.062-1.712 7.918-1.926 7.062-2.568 7.49-2.354 5.778-2.782 5.992-2.996 5.778-2.782 4.708-2.354 3.638-2.354 3.424-2.996 4.066-2.782 3.424-1.926 2.354-2.568 2.782-1.498 1.712-5.992 5.992-1.712 1.498-2.14 1.926-2.354 1.926-3.21 2.568-4.066 2.996-5.136 3.424-3.852 2.354-4.494 2.568-5.778 2.996-5.136 2.354-6.42 2.568-7.49 2.568-6.206 1.712-6.42 1.498-7.062 1.284-6.634.856-8.132.642h-13.268l-6.206-.428-7.276-.856-7.276-1.284-7.49-1.712-7.276-2.14-6.634-2.354-5.778-2.354-3.424-1.712-3.638-1.926-4.494-2.996-3.424-2.782-2.568-2.354-2.354-2.354-1.926-2.354-2.782-3.852-2.568-4.494-1.926-4.28.214-.428 2.354 2.996 2.14 2.354 1.498 1.712 2.782 2.568 3.638 2.782 3.21 2.14 4.494 2.568 4.066 1.926 7.062 2.782 7.704 2.568 8.132 2.14 7.49 1.498 7.276 1.07 7.062.642 4.28.214h9.416l7.276-.428 7.704-.856 7.49-1.284 7.704-1.712 7.49-2.14 6.848-2.354 6.206-2.568 5.564-2.568 4.28-2.14 4.922-2.782 4.494-2.782 4.708-3.21 4.066-2.996 2.996-2.354 2.996-2.568 1.712-1.498 2.14-1.926 3.638-3.424 3.424-3.638 2.354-2.568 1.926-2.354 2.782-3.424 2.996-4.066 2.782-4.066 2.568-4.066 3.21-5.564 2.354-4.494 2.996-6.634 2.782-7.276 2.354-7.276 2.354-9.416 1.284-7.276.856-6.634.428-5.35.214-4.922v-7.062l-.428-7.704-.856-7.704-1.498-8.774-1.712-7.276-2.14-7.276-2.568-7.276-1.498-3.638z"/><path fill="#101010" d="m213.572 126.26 1.712.214 2.14 1.07 2.996 2.568 1.926 2.14 3.21 4.28 2.782 4.28 1.926 3.21 2.782 4.922 2.568 4.922 1.284 2.354-.214.428-3.21-5.35-2.568-3.852-2.996-4.066-2.568-2.782-1.498-1.498-2.354-1.498-1.07-.428h-2.354l-2.568 1.07-2.354 1.498-2.568 2.354-2.354 2.354-1.926 2.354-2.568 3.424-3.852 5.778-2.782 4.494-2.782 4.922-2.14 3.852-2.568 4.922-2.14 4.066-3.21 6.42-1.926 4.28-1.712 3.424-3.424 7.704-2.568 5.564-4.922 11.556-3.852 9.202-.856 2.14-2.782-.428-.642 1.926-1.498 3.424 2.354.642-.214 1.284-3.638 9.202-4.708 12.198-3.852 10.272-3.638 9.844-1.712 5.778-1.284 6.634-.428 3.852v7.918l.428 3.852 1.07 4.922.214 1.07h-.428l-2.14-3.638-1.712-3.638-1.712-5.136-.856-4.28-.428-3.638v-7.918l.642-5.35 1.07-5.136 1.498-5.35 4.066-11.128 4.494-11.77 4.066-10.486 5.992-14.98 4.066-9.844 4.922-11.556 3.638-8.132 3.424-7.49 3.638-7.704 5.992-11.984 2.568-4.708 2.996-5.35 2.568-4.28 2.996-4.708 2.568-3.638 2.14-2.782 1.926-2.354 2.354-2.568 2.354-2.14 2.996-1.926 2.14-.856z"/><path fill="#101010" d="m251.664 166.492.642.856 2.354 4.922 1.712 3.424 3.21 7.062 4.708 10.914 4.066 9.844 3.424 8.774 3.424 8.988 3.424 9.416 2.568 7.276 3.638 10.7 3.638 11.128 3.424 11.342 2.782 10.058 1.926 7.918 1.07 5.564.214 1.498v3.852l-.856 2.14-.856 1.07-1.498.856-.856.214h-2.14l-2.782-.856-2.14-1.07-4.28-2.996-3.424-2.354-5.136-3.424-4.28-2.782-4.708-2.996-5.992-3.638-4.708-2.782-8.988-5.136-6.848-3.638-5.778-2.996-6.848-3.424-7.062-3.21-5.136-2.354-9.202-3.852-8.346-3.21-7.918-2.782-7.062-2.354-8.988-2.568-6.848-1.712 1.926-4.494.428-1.07 2.782.428 8.988 2.14 10.7 2.996 10.272 3.21 6.848 2.354 2.14.642 7.062 3.21 10.7 5.136 7.49 3.852 4.708 2.568 5.778 3.21 5.136 2.996 6.848 4.066 9.416 5.992 7.062 4.708 3.424 2.354 4.922 3.424 2.354 1.07 2.782.642 2.568-.428 1.284-.856 1.07-1.498.428-1.284v-4.066l-1.07-5.992-3.21-12.84-3.424-11.77-3.852-12.198-4.922-14.766-4.066-11.342-3.638-9.844-3.638-9.416-4.066-10.058-3.424-8.132-3.852-8.774-1.498-3.21z"/><path fill="#212120" d="m213.572 126.26 1.712.214.214.428-2.568 1.498-2.14 1.712-2.568 2.354-2.568 2.782-2.354 2.996-2.14 2.782-2.996 4.28-2.782 4.28-3.21 5.136-3.21 5.564-2.568 4.494-2.996 5.564-2.354 4.28-8.346 16.692-2.568 5.564-1.712 3.424-3.21 7.062-2.996 6.634-3.852 8.774-3.21 7.49-2.996 7.062-.214-.642 6.848-17.12 3.424-8.346 3.424-8.132 2.782-6.42 3.424-7.704 3.424-7.49 3.638-7.704 5.992-11.984 2.568-4.708 2.996-5.35 2.568-4.28 2.996-4.708 2.568-3.638 2.14-2.782 1.926-2.354 2.354-2.568 2.354-2.14 2.996-1.926 2.14-.856z"/><path fill="#E8E8E8" d="M212.074 197.094h3.21l2.14.856 1.712 1.284 1.284 1.712.642 1.498.214 1.07v2.14l-.642 2.14-1.284 1.926-1.498 1.284-1.712.856-.856.214h-3.21l-2.568-1.07-1.712-1.498-1.07-1.712-.642-2.14v-2.14l.856-2.568 1.498-1.926 1.712-1.284z"/><path fill="#212120" d="M178.048 95.872h1.07l-.642.428-6.848 2.354-6.206 2.568-5.564 2.568-5.778 2.996-5.778 3.424-4.28 2.782-4.066 2.782-5.992 4.708-2.996 2.568-4.28 3.852-6.634 6.634-1.498 1.712-2.568 2.996-1.926 2.354-2.996 3.852-2.782 4.066-2.354 3.424-2.996 4.922-2.996 5.35-2.782 5.564-.214-.642 2.568-5.564 1.712-3.424 2.568-4.922 3.21-5.35 2.568-3.852 2.568-3.638 2.14-2.782 2.782-3.424 2.568-2.996 2.996-3.21 5.778-5.778 1.712-1.498 2.996-2.568 3.424-2.782 3.852-2.782 3.638-2.568 4.708-2.782 5.778-2.996 4.708-2.14 5.564-2.14 7.704-2.568z"/><path fill="#101010" d="m220.42 207.794 1.926.428 2.354 1.712 1.284 1.926.642 2.354v2.14l-.856 2.568-1.926 2.14-1.712 1.07-1.07.428-1.284.214h-1.712l-2.14-.642-1.926-1.284-1.498-1.712-.856-2.14-.214-2.354.642-2.568 3.21-.214 2.14-.856 1.712-1.284z"/><path fill="#E8E8E8" d="M121.338 222.346h14.338l6.42.428-.214 1.284-1.926 4.708-1.712-.214-5.35-1.284-6.848-1.07-6.848-.642-3.852-.214-14.338-.214.856-.428 5.992-1.07 7.062-.856z"/><path fill="#101010" d="M130.112 232.832h8.132l4.922.214.642.214-.214 1.284-1.498 3.852-2.14-.214-5.778-1.07-7.49-.856-7.704-.428-12.198-.214v-.214l5.564-1.07 6.848-.856 5.778-.428z"/><path fill="#212120" d="m260.866 341.116.642.214-5.35 1.926-7.49 2.14-5.778 1.284-5.992 1.07-7.062.856-2.782.214h-3.424v-.214l7.276-.642 7.49-1.07 8.56-1.712 7.918-2.14zM289.97 292.966l.856.856 2.568 4.066-.214.428-2.996-3.21-1.498-1.284.214-.428z"/><path fill="#141413" d="m251.664 166.492.642.856 2.354 4.922.214.856h-.428l-2.782-5.992z"/></g><defs><clipPath id="a"><path fill="#fff" d="M0 0h428v428H0z"/></clipPath></defs></svg>